HIERARCHY
ROOT Hips
{
	OFFSET 0.00000 0.00000 0.00000
	CHANNELS 6 Xposition Yposition Zposition Zrotation Yrotation Xrotation 
	JOINT LHipJoint
	{
		OFFSET 0 0 0
		CHANNELS 3 Zrotation Yrotation Xrotation
		JOINT LeftUpLeg
		{
			OFFSET 1.75344 -1.53157 0.77399
			CHANNELS 3 Zrotation Yrotation Xrotation
			JOINT LeftLeg
			{
				OFFSET 2.25415 -6.19323 0.00000
				CHANNELS 3 Zrotation Yrotation Xrotation
				JOINT LeftFoot
				{
					OFFSET 2.30342 -6.32861 0.00000
					CHANNELS 3 Zrotation Yrotation Xrotation
					JOINT LeftToeBase
					{
						OFFSET 0.10958 -0.30108 1.49206
						CHANNELS 3 Zrotation Yrotation Xrotation
						End Site
						{
							OFFSET 0.00000 -0.00000 0.77783
						}
					}
				}
			}
		}
	}
	JOINT RHipJoint
	{
		OFFSET 0 0 0
		CHANNELS 3 Zrotation Yrotation Xrotation
		JOINT RightUpLeg
		{
			OFFSET -1.81912 -1.53156 0.77399
			CHANNELS 3 Zrotation Yrotation Xrotation
			JOINT RightLeg
			{
				OFFSET -2.22882 -6.12365 0.00000
				CHANNELS 3 Zrotation Yrotation Xrotation
				JOINT RightFoot
				{
					OFFSET -2.21943 -6.09785 0.00000
					CHANNELS 3 Zrotation Yrotation Xrotation
					JOINT RightToeBase
					{
						OFFSET -0.18931 -0.52012 1.59379
						CHANNELS 3 Zrotation Yrotation Xrotation
						End Site
						{
							OFFSET -0.00000 -0.00000 0.84686
						}
					}
				}
			}
		}
	}
	JOINT LowerBack
	{
		OFFSET 0 0 0
		CHANNELS 3 Zrotation Yrotation Xrotation
		JOINT Spine
		{
			OFFSET -0.00200 1.66634 -0.14248
			CHANNELS 3 Zrotation Yrotation Xrotation
			JOINT Spine1
			{
				OFFSET -0.00875 1.64542 0.09514
				CHANNELS 3 Zrotation Yrotation Xrotation
				JOINT Neck
				{
					OFFSET 0 0 0
					CHANNELS 3 Zrotation Yrotation Xrotation
					JOINT Neck1
					{
						OFFSET 0.02257 1.59605 0.00839
						CHANNELS 3 Zrotation Yrotation Xrotation
						JOINT Head
						{
							OFFSET -0.10214 1.57530 -0.23335
							CHANNELS 3 Zrotation Yrotation Xrotation
							End Site
							{
								OFFSET -0.03588 1.60717 -0.08062
							}
						}
					}
				}
				JOINT LeftShoulder
				{
					OFFSET 0 0 0
					CHANNELS 3 Zrotation Yrotation Xrotation
					JOINT LeftArm
					{
						OFFSET 2.54983 1.10186 0.40078
						CHANNELS 3 Zrotation Yrotation Xrotation
						JOINT LeftForeArm
						{
							OFFSET 4.28840 -0.00000 0.00000
							CHANNELS 3 Zrotation Yrotation Xrotation
							JOINT LeftHand
							{
								OFFSET 3.06552 -0.00000 -0.00000
								CHANNELS 3 Zrotation Yrotation Xrotation
								JOINT LeftFingerBase
								{
									OFFSET 0 0 0
									CHANNELS 3 Zrotation Yrotation Xrotation
									JOINT LeftHandIndex1
									{
										OFFSET 0.75304 -0.00000 0.00000
										CHANNELS 3 Zrotation Yrotation Xrotation
										End Site
										{
											OFFSET 0.60712 -0.00000 0.00000
										}
									}
								}
								JOINT LThumb
								{
									OFFSET 0 0 0
									CHANNELS 3 Zrotation Yrotation Xrotation
									End Site
									{
										OFFSET 0.61639 -0.00000 0.61639
									}
								}
							}
						}
					}
				}
				JOINT RightShoulder
				{
					OFFSET 0 0 0
					CHANNELS 3 Zrotation Yrotation Xrotation
					JOINT RightArm
					{
						OFFSET -2.60909 1.35448 0.21802
						CHANNELS 3 Zrotation Yrotation Xrotation
						JOINT RightForeArm
						{
							OFFSET -4.52172 -0.00000 -0.00000
							CHANNELS 3 Zrotation Yrotation Xrotation
							JOINT RightHand
							{
								OFFSET -2.89140 -0.00000 0.00000
								CHANNELS 3 Zrotation Yrotation Xrotation
								JOINT RightFingerBase
								{
									OFFSET 0 0 0
									CHANNELS 3 Zrotation Yrotation Xrotation
									JOINT RightHandIndex1
									{
										OFFSET -0.68054 -0.00000 0.00000
										CHANNELS 3 Zrotation Yrotation Xrotation
										End Site
										{
											OFFSET -0.54867 -0.00000 0.00000
										}
									}
								}
								JOINT RThumb
								{
									OFFSET 0 0 0
									CHANNELS 3 Zrotation Yrotation Xrotation
									End Site
									{
										OFFSET -0.55705 -0.00000 0.55705
									}
								}
							}
						}
					}
				}
			}
		}
	}
}
MOTION
Frames: 11
Frame Time: 0.0833333
0.00 0.00 0.00 0 0 0 0 0 0 -21 0 0 0 0 0 0 0 0 0 0 0 0 0 0 21 0 0 0 0 0 0 0 0 0 0 0 0 0 0 0 0 0 0 0 0 0 0 -16 0 0 21 0 0 11 0 0 0 -8 0 0 0 0 0 0 0 0 0 0 0 0 0 0 0 0 0 0 0 0 8 0 0 0 0 0 0 0 0 0 0 0 0 0 0 0 0 0
0.00 0.00 0.00 -180.2330 5.7999 183.5300 0.0000 0.0000 0.0000 -30.1469 -21.7320 1.3745 1.3942 7.4700 21.1154 1.7649 11.0364 -31.1491 0.6222 -5.0478 -14.0448 0.0000 0.0000 0.0000 17.4907 14.6854 -16.2715 -5.4301 -13.8524 42.6494 -1.0365 -13.3931 -28.2736 -0.0009 0.1950 -0.5359 -0.0797 2.0775 6.7233 -0.2334 2.8094 -3.6800 -0.5744 1.3943 -7.6289 -6.5853 -2.6647 -4.8788 6.9452 -3.6620 6.3281 3.3520 -1.7826 3.2440 -0.0000 -0.0000 0.0000 -85.5729 11.0466 38.3351 19.7554 -30.3465 -5.4072 -0.0000 -0.0000 15.3452 10.5476 -38.2980 -6.5826 -7.1250 0.0000 -0.0000 -12.5094 -7.9820 14.4510 -0.0000 -0.0000 0.0000 86.5859 -13.5596 33.5662 -19.9298 30.5576 -5.4956 0.0000 0.0000 10.9645 -1.0390 -56.0962 0.8624 7.1250 -0.0000 -0.0000 81.4630 -72.3872 -62.7735
0.00 0.00 0.00 -180.4910 2.1490 186.0860 0.0000 0.0000 0.0000 -31.4568 -18.8958 12.0805 0.3791 3.9544 10.9484 1.6788 10.9208 -30.5219 1.5795 -7.9289 -22.4983 0.0000 0.0000 0.0000 10.6880 35.1293 -23.2024 -1.3961 -7.4748 21.1299 -0.3857 -23.6800 -35.5692 -0.6504 -5.1589 14.3622 -0.9762 0.6562 7.8882 0.4532 0.8424 -3.6197 0.8996 0.4941 -8.2760 -4.2520 -2.2849 -4.2550 5.4756 -2.9084 0.9501 2.4080 -1.3722 1.1915 -0.0000 0.0000 0.0000 -85.7449 10.6391 41.7728 19.3054 -29.7964 -5.1817 -0.0000 -0.0000 18.6001 10.5930 -35.2748 -6.1642 -7.1250 0.0000 -0.0000 -12.1873 -5.0487 13.5102 -0.0000 0.0000 0.0000 86.0931 -14.3734 31.1218 -18.7698 29.1316 -4.9183 0.0000 0.0000 11.3298 -3.9178 -54.7052 3.1993 7.1250 -0.0000 -0.0000 76.0352 -73.1641 -58.4056
0.00 0.00 0.00 -180.6100 -2.4871 185.7790 0.0000 0.0000 0.0000 -26.3498 -8.8357 12.4625 1.1172 6.7145 18.8723 0.3013 2.0756 -11.3408 1.8905 -8.6341 -24.6574 0.0000 0.0000 0.0000 19.5725 30.5271 -12.2440 -1.5709 -7.9085 22.4364 0.5711 -25.3515 -32.1991 -0.7198 -5.4215 15.1147 -0.2578 -0.0185 6.1953 2.2681 0.0037 -3.6965 2.5329 0.0357 -7.3568 -2.4012 -2.0397 -5.9901 1.9292 -2.6209 2.9892 0.9279 -1.2862 2.0296 0.0000 0.0000 0.0000 -86.6130 14.2405 46.3387 20.5000 -31.2400 -5.7884 -0.0000 -0.0000 14.4981 3.1997 -32.5485 -1.7227 -7.1250 0.0000 -0.0000 -16.0479 -1.5095 17.1451 0.0000 0.0000 0.0000 84.0107 -15.2449 34.6366 -20.8435 31.6452 -5.9676 0.0000 0.0000 8.9386 -2.9579 -55.2929 2.4323 7.1250 -0.0000 -0.0000 78.2837 -72.9349 -60.3027
0.00 0.00 0.00 -178.3470 -3.7079 185.1830 0.0000 0.0000 0.0000 -19.6063 -3.3045 3.0913 3.7575 11.8306 35.1353 -0.0018 -1.5015 -0.8369 0.5548 -4.7713 -13.2574 0.0000 0.0000 0.0000 25.7606 26.9057 -6.2819 -1.1039 -6.6758 18.7584 0.6896 -25.1824 -31.1415 -0.6761 -5.2576 14.6448 1.6924 -0.2885 5.7929 3.0679 -0.2130 -4.2331 2.3158 -0.1848 -7.6941 -2.2251 -2.0788 -6.2939 0.7060 -2.6242 3.7831 0.5036 -1.3200 2.3204 0.0000 0.0000 0.0000 -85.6121 15.7829 47.3050 22.2708 -33.2817 -6.7338 -0.0000 -0.0000 12.6027 3.7717 -32.4175 -2.0240 -7.1250 0.0000 -0.0000 -15.7307 -1.4395 16.7594 0.0000 0.0000 0.0000 82.6334 -15.7010 38.8245 -21.5610 32.4774 -6.3485 0.0000 0.0000 7.1117 1.7426 -56.9596 -1.4609 7.1250 -0.0000 -0.0000 84.9373 -71.5338 -65.2439
0.00 0.00 0.00 -176.3230 -5.6811 183.8880 0.0000 0.0000 0.0000 -14.9995 -3.3022 -6.3539 8.4021 16.4072 53.9985 0.1214 1.1804 6.2721 0.0463 -1.3883 -3.8180 0.0000 0.0000 0.0000 30.9846 22.7032 0.4457 -0.5219 -4.6299 12.8559 1.1988 -25.8455 -28.5829 -1.2630 -7.1239 20.0829 3.4600 -0.5074 6.4702 3.4362 -0.3189 -4.3132 1.7455 -0.3418 -8.1870 -2.8179 -2.5844 -6.6818 1.4120 -3.2748 3.9738 0.8004 -1.6306 2.4957 0.0000 0.0000 0.0000 -87.8269 14.1332 39.5162 21.7403 -32.6823 -6.4450 -0.0000 -0.0000 13.8089 4.4236 -33.9433 -2.4734 -7.1250 0.0000 -0.0000 -15.4305 -2.9728 16.8191 0.0000 0.0000 0.0000 82.0696 -14.6570 40.1204 -20.4466 31.1767 -5.7608 0.0000 0.0000 8.9849 1.2315 -57.4741 -1.0384 7.1250 -0.0000 -0.0000 86.3384 -71.7538 -66.9412
0.00 0.00 0.00 -176.2950 -7.3106 183.8280 0.0000 0.0000 0.0000 -14.6262 -7.3910 -23.5934 13.0598 18.8036 69.3111 0.2832 -0.5453 -9.8729 0.7038 -5.3621 -14.9444 0.0000 0.0000 0.0000 34.6525 20.5348 4.8524 -0.5834 -4.8905 13.5966 0.7001 -26.1924 -32.7040 -1.3683 -7.4033 20.9158 3.2742 0.3477 6.3909 2.3228 0.7917 -4.8522 0.5250 0.1851 -8.7101 -5.0145 -4.0175 -7.8889 3.4636 -5.0835 5.4480 1.7520 -2.4975 3.4257 0.0000 -0.0000 0.0000 -90.6877 11.5724 27.7309 24.4777 -35.6654 -7.9834 -0.0000 -0.0000 5.8244 6.5883 -33.1414 -3.6130 -7.1250 0.0000 -0.0000 -14.2144 -2.4434 15.2774 0.0000 -0.0000 0.0000 83.6450 -13.6459 36.5633 -18.4755 28.7618 -4.7759 0.0000 0.0000 12.4730 -0.7235 -56.9093 0.6062 7.1250 -0.0000 -0.0000 84.0993 -72.3736 -65.3972
0.00 0.00 0.00 -176.5580 -6.2363 182.8160 0.0000 0.0000 0.0000 -15.8206 -13.2442 -30.3709 7.9211 16.0609 52.2782 1.0452 4.7882 -21.6027 1.2402 -7.0616 -19.8980 0.0000 0.0000 0.0000 37.3115 15.6864 14.8166 -0.1310 -2.3328 6.4262 1.0398 -26.8776 -31.6253 -1.1684 -6.8615 19.3057 3.5819 1.5489 6.3455 0.9986 2.3908 -4.6750 -1.2659 0.9349 -8.3941 -7.1199 -4.9654 -10.1393 5.0183 -6.1226 6.8171 2.2765 -2.9553 4.0595 -0.0000 -0.0000 0.0000 -88.8014 13.7582 26.5921 30.4487 -41.2749 -11.7045 -0.0000 -0.0000 1.6251 7.7791 -32.9570 -4.2503 -7.1250 0.0000 -0.0000 -13.5492 -2.4097 14.5120 -0.0000 -0.0000 0.0000 83.7678 -13.4705 38.4895 -20.0361 30.6858 -5.5498 0.0000 0.0000 10.9722 0.0869 -56.0770 -0.0721 7.1250 -0.0000 -0.0000 81.7661 -71.9934 -62.6038
0.00 0.00 0.00 -176.5930 -6.0322 183.2950 0.0000 0.0000 0.0000 -13.7385 -21.6420 -29.0874 3.6082 11.6200 34.4005 0.6813 9.4327 -21.7434 0.4155 -4.1374 -11.4634 0.0000 0.0000 0.0000 36.3785 9.2237 18.9307 0.0000 0.0000 -0.0000 0.4912 -23.0996 -29.2022 -1.5763 -7.9213 22.4752 4.0072 1.5950 5.4226 0.4854 2.3950 -5.0921 -2.0197 0.8818 -8.2667 -7.1053 -4.6247 -10.3606 5.1438 -5.6453 6.2155 2.3488 -2.7096 3.8861 -0.0000 0.0000 0.0000 -88.8669 14.0375 21.9285 26.4488 -37.6485 -9.1604 -0.0000 -0.0000 3.2987 6.9429 -32.9051 -3.7848 -7.1250 0.0000 -0.0000 -14.0070 -2.2570 14.9961 -0.0000 0.0000 0.0000 83.9195 -12.3971 37.4342 -19.7378 30.3251 -5.3983 0.0000 0.0000 12.0031 0.7121 -56.0779 -0.5909 7.1250 -0.0000 -0.0000 81.9777 -71.7772 -62.5546
0.00 0.00 0.00 -176.1910 -4.5397 183.6860 0.0000 0.0000 0.0000 -7.1164 -38.5856 -25.8206 2.0939 9.0590 25.9801 1.7290 17.1230 -35.9169 0.1080 2.1192 5.8353 0.0000 0.0000 0.0000 36.1896 6.4935 20.2495 0.0000 -0.0000 0.0000 0.2471 -21.0905 -27.9524 -1.3745 -7.4192 20.9633 4.5738 2.0536 4.5292 0.1775 2.9761 -5.1866 -2.6907 1.1285 -7.7674 -6.0494 -4.4090 -11.6493 4.6113 -5.3842 6.0885 2.0133 -2.5680 3.9961 -0.0000 0.0000 0.0000 -88.6952 13.6686 17.3882 21.5239 -32.4348 -6.3286 -0.0000 -0.0000 9.0369 6.6676 -33.1287 -3.6556 -7.1250 0.0000 -0.0000 -14.1702 -2.4405 15.2262 -0.0000 0.0000 0.0000 84.4818 -10.9826 35.7581 -19.2247 29.6969 -5.1417 0.0000 0.0000 11.9929 -0.2889 -56.1422 0.2399 7.1250 -0.0000 -0.0000 81.8430 -72.1329 -62.8475
0.00 0.00 0.00 -177.7390 3.1254 182.7730 0.0000 0.0000 0.0000 -14.1868 -37.2043 -15.8851 1.8042 8.4458 24.0766 0.1680 20.2696 -29.8492 0.1813 2.7428 7.5634 0.0000 0.0000 0.0000 29.4884 1.3259 27.6635 0.0000 -0.0000 0.0000 0.9498 -17.6576 -11.9710 -0.0036 -0.3884 1.0673 3.5753 2.0835 2.7921 -0.1786 3.3061 -5.8541 -2.5021 1.5312 -7.4888 -4.6141 -2.1108 -10.5654 3.7659 -2.4830 4.9805 1.9277 -1.1668 3.6563 -0.0000 -0.0000 0.0000 -90.1674 20.5883 4.0551 17.9691 -28.1176 -4.5347 -0.0000 -0.0000 23.7009 -8.0770 -29.4168 3.9871 -7.1250 0.0000 -0.0000 -22.2188 2.1085 23.2279 -0.0000 -0.0000 0.0000 85.5350 -11.2507 33.1710 -19.5770 30.1293 -5.3174 0.0000 0.0000 12.5363 -2.3021 -55.9713 1.9082 7.1250 -0.0000 -0.0000 80.6783 -72.8114 -62.5005
